<?xml version="1.0" encoding="UTF-8"?>
<svg xmlns="http://www.w3.org/2000/svg" width="164" height="40" viewBox="0 0 164 40" fill="none">
  <path d="M0 0.25H8.62548L11.0568 33.4898H11.1147L14.7038 0.25H26.7448L30.276 33.4898H30.3918L32.8232 0.25H41.4486L37.107 39.2198H24.4871L20.7822 6.91551H20.6664L16.9615 39.2198H4.34169L0 0.25Z" fill="white"></path>
  <path d="M44.1992 0.25H61.3923V7.26632H53.1141V15.8028H60.7555V22.4683H53.1141V32.2327H62.0291V39.249H44.1992V0.25Z" fill="white"></path>
  <path d="M65.0973 0.25H73.9833V39.2198H65.0684V0.25H65.0973Z" fill="white"></path>
  <path d="M77.918 0.25H89.5537C98.5844 0.25 100.379 2.64724 100.553 14.8673V24.6317C100.495 36.7349 98.5265 39.3075 89.5537 39.249H77.918V0.25ZM86.8329 32.2035H89.2642C91.1746 32.2035 91.6377 31.5018 91.6377 28.4614V10.6868C91.6377 7.64637 91.1746 6.88627 89.2642 6.88627H86.8329V32.2035Z" fill="white"></path>
  <path d="M103.68 0.25H120.873V7.26632H112.595V15.8028H120.236V22.4683H112.595V32.2327H121.51V39.249H103.68V0.25Z" fill="white"></path>
  <path d="M124.549 0.25H135.606C145.273 0.25 147.878 2.23796 147.878 9.54663V14.2242C147.82 19.4279 146.315 21.4159 141.8 22.176V22.2929C146.662 23.2869 147.762 24.4563 147.878 28.6076V39.249H138.963V28.0814C138.963 26.3858 137.979 25.8011 134.969 25.8011H133.464V39.249H124.549V0.25ZM133.464 19.0479H135.2C138.269 19.0479 138.963 18.4047 138.963 15.6567V9.80974C138.963 7.76331 138.153 6.88627 136.185 6.88627H133.464V19.0479Z" fill="white"></path>
  <path d="M164.001 6.03896C164.001 9.1963 161.541 11.6812 158.357 11.6812C155.202 11.6812 152.684 9.1963 152.684 6.03896C152.684 2.94009 155.202 0.484375 158.357 0.484375C161.57 0.484375 164.001 2.96932 164.001 6.03896ZM154.102 6.03896C154.102 8.5239 155.925 10.4826 158.386 10.4826C160.817 10.4826 162.583 8.52391 162.583 6.0682C162.583 3.58325 160.817 1.59529 158.357 1.59529C155.896 1.59529 154.102 3.61248 154.102 6.03896ZM157.488 8.96242H156.215V3.40784C156.707 3.32014 157.431 3.23243 158.328 3.23243C159.37 3.23243 159.833 3.40784 160.238 3.64171C160.528 3.87559 160.788 4.31411 160.788 4.86957C160.788 5.4835 160.325 5.95125 159.659 6.1559V6.21437C160.209 6.41901 160.499 6.82829 160.672 7.55916C160.846 8.40696 160.933 8.75778 161.078 8.96242H159.688C159.515 8.75778 159.428 8.26079 159.254 7.61763C159.167 7.0037 158.82 6.74059 158.125 6.74059H157.517V8.96242H157.488ZM157.546 5.80508H158.154C158.849 5.80508 159.428 5.5712 159.428 4.98651C159.428 4.48952 159.051 4.13871 158.241 4.13871C157.894 4.13871 157.662 4.16794 157.546 4.19717V5.80508Z" fill="white"></path>
</svg>
